<svg width="28" height="29" viewBox="0 0 28 29" fill="#D9D9D9" xmlns="http://www.w3.org/2000/svg"><mask id="mask0_283_140" style="mask-type:alpha" maskUnits="userSpaceOnUse" x="0" y="0" width="28" height="29"><rect y="0.5" width="28" height="28"/></mask><g mask="url(#mask0_283_140)"><path d="M13.2124 20.3334H14.9624V15.4917H19.8333V13.7417H14.9624V8.66671H13.2124V13.7417H8.16659V15.4917H13.2124V20.3334ZM13.9999 26.1667C12.4055 26.1667 10.8985 25.8605 9.47909 25.248C8.05964 24.6355 6.82006 23.7993 5.76034 22.7396C4.70061 21.6799 3.8645 20.4403 3.252 19.0209C2.6395 17.6014 2.33325 16.0848 2.33325 14.4709C2.33325 12.8764 2.6395 11.3695 3.252 9.95004C3.8645 8.5306 4.70061 7.29587 5.76034 6.24587C6.82006 5.19587 8.05964 4.36462 9.47909 3.75212C10.8985 3.13962 12.4152 2.83337 14.0291 2.83337C15.6235 2.83337 17.1305 3.13962 18.5499 3.75212C19.9694 4.36462 21.2041 5.19587 22.2541 6.24587C23.3041 7.29587 24.1353 8.5306 24.7478 9.95004C25.3603 11.3695 25.6666 12.8862 25.6666 14.5C25.6666 16.0945 25.3603 17.6014 24.7478 19.0209C24.1353 20.4403 23.3041 21.6799 22.2541 22.7396C21.2041 23.7993 19.9694 24.6355 18.5499 25.248C17.1305 25.8605 15.6138 26.1667 13.9999 26.1667ZM14.0291 24.4167C16.7708 24.4167 19.1041 23.4493 21.0291 21.5146C22.9541 19.5799 23.9166 17.232 23.9166 14.4709C23.9166 11.7292 22.9541 9.39587 21.0291 7.47087C19.1041 5.54587 16.761 4.58337 13.9999 4.58337C11.2583 4.58337 8.92006 5.54587 6.98534 7.47087C5.05061 9.39587 4.08325 11.7389 4.08325 14.5C4.08325 17.2417 5.05061 19.5799 6.98534 21.5146C8.92006 23.4493 11.268 24.4167 14.0291 24.4167Z"/></g></svg>