<svg width="36" height="37" viewBox="0 0 36 37" fill="none" xmlns="http://www.w3.org/2000/svg">
<path d="M17.8313 18.315C18.3188 17.715 18.6797 17.0963 18.9141 16.4588C19.1484 15.8213 19.2656 15.0806 19.2656 14.2369C19.2656 13.3931 19.1484 12.6525 18.9141 12.015C18.6797 11.3775 18.3188 10.7588 17.8313 10.1588C19.2563 9.84002 20.5078 10.0556 21.5859 10.8056C22.6641 11.5556 23.2031 12.6994 23.2031 14.2369C23.2031 15.7744 22.6641 16.9181 21.5859 17.6681C20.5078 18.4181 19.2563 18.6338 17.8313 18.315ZM23.9062 27.4838V24.84C23.9062 23.8838 23.6625 22.9931 23.175 22.1681C22.6875 21.3431 21.8438 20.6494 20.6438 20.0869C23.8875 20.4994 26.1047 21.0994 27.2953 21.8869C28.4859 22.6744 29.0813 23.6588 29.0813 24.84V27.4838H23.9062ZM27 19.3556V16.5431H24.1875V14.8556H27V12.0431H28.6875V14.8556H31.5V16.5431H28.6875V19.3556H27ZM13.3594 18.4556C12.1219 18.4556 11.1094 18.0619 10.3219 17.2744C9.53438 16.4869 9.14062 15.4744 9.14062 14.2369C9.14062 12.9994 9.53438 11.9869 10.3219 11.1994C11.1094 10.4119 12.1219 10.0181 13.3594 10.0181C14.5969 10.0181 15.6094 10.4119 16.3969 11.1994C17.1844 11.9869 17.5781 12.9994 17.5781 14.2369C17.5781 15.4744 17.1844 16.4869 16.3969 17.2744C15.6094 18.0619 14.5969 18.4556 13.3594 18.4556ZM4.5 27.4838V24.84C4.5 24.1838 4.67344 23.5885 5.02031 23.0541C5.36719 22.5197 5.83125 22.1213 6.4125 21.8588C7.7625 21.2588 8.96719 20.8275 10.0266 20.565C11.0859 20.3025 12.1969 20.1713 13.3594 20.1713C14.5219 20.1713 15.6281 20.3025 16.6781 20.565C17.7281 20.8275 18.9281 21.2588 20.2781 21.8588C20.8594 22.1213 21.3281 22.5197 21.6844 23.0541C22.0406 23.5885 22.2188 24.1838 22.2188 24.84V27.4838H4.5Z" fill="white" fill-opacity="0.8"/>
</svg>
