<svg width="32" height="33" viewBox="0 0 32 33" fill="none" xmlns="http://www.w3.org/2000/svg">
<mask id="mask0_295_189" style="mask-type:alpha" maskUnits="userSpaceOnUse" x="0" y="0" width="32" height="33">
<rect y="0.5" width="32" height="32" fill="#D9D9D9"/>
</mask>
<g mask="url(#mask0_295_189)">
<path d="M14.6665 23.1666H17.3332V15.1666H14.6665V23.1666ZM15.9998 12.5C16.3776 12.5 16.6945 12.372 16.9505 12.116C17.2056 11.8608 17.3332 11.5444 17.3332 11.1666C17.3332 10.7888 17.2056 10.472 16.9505 10.216C16.6945 9.96085 16.3776 9.83329 15.9998 9.83329C15.6221 9.83329 15.3056 9.96085 15.0505 10.216C14.7945 10.472 14.6665 10.7888 14.6665 11.1666C14.6665 11.5444 14.7945 11.8608 15.0505 12.116C15.3056 12.372 15.6221 12.5 15.9998 12.5ZM15.9998 29.8333C14.1554 29.8333 12.4221 29.4831 10.7998 28.7826C9.17762 28.0831 7.7665 27.1333 6.5665 25.9333C5.3665 24.7333 4.41673 23.3222 3.71717 21.7C3.01673 20.0777 2.6665 18.3444 2.6665 16.5C2.6665 14.6555 3.01673 12.9222 3.71717 11.3C4.41673 9.67774 5.3665 8.26663 6.5665 7.06663C7.7665 5.86663 9.17762 4.9164 10.7998 4.21596C12.4221 3.5164 14.1554 3.16663 15.9998 3.16663C17.8443 3.16663 19.5776 3.5164 21.1998 4.21596C22.8221 4.9164 24.2332 5.86663 25.4332 7.06663C26.6332 8.26663 27.5829 9.67774 28.2825 11.3C28.9829 12.9222 29.3332 14.6555 29.3332 16.5C29.3332 18.3444 28.9829 20.0777 28.2825 21.7C27.5829 23.3222 26.6332 24.7333 25.4332 25.9333C24.2332 27.1333 22.8221 28.0831 21.1998 28.7826C19.5776 29.4831 17.8443 29.8333 15.9998 29.8333ZM15.9998 27.1666C18.9776 27.1666 21.4998 26.1333 23.5665 24.0666C25.6332 22 26.6665 19.4777 26.6665 16.5C26.6665 13.5222 25.6332 11 23.5665 8.93329C21.4998 6.86663 18.9776 5.83329 15.9998 5.83329C13.0221 5.83329 10.4998 6.86663 8.43317 8.93329C6.3665 11 5.33317 13.5222 5.33317 16.5C5.33317 19.4777 6.3665 22 8.43317 24.0666C10.4998 26.1333 13.0221 27.1666 15.9998 27.1666Z" fill="#1C1B1F"/>
</g>
</svg>
