<svg width="28" height="29" viewBox="0 0 28 29" fill="none" xmlns="http://www.w3.org/2000/svg">
<mask id="mask0_26_54" style="mask-type:alpha" maskUnits="userSpaceOnUse" x="0" y="0" width="28" height="29">
<rect y="0.75" width="28" height="28" fill="#5F5F5F" fill-opacity="0.85"/>
</mask>
<g mask="url(#mask0_26_54)">
<path d="M6.41669 26.4167C5.93058 26.4167 5.51738 26.2465 5.1771 25.9063C4.83683 25.566 4.66669 25.1528 4.66669 24.6667V12.0084C4.66669 11.5222 4.83683 11.109 5.1771 10.7688C5.51738 10.4285 5.93058 10.2584 6.41669 10.2584H8.45835V7.45835C8.45835 5.92224 8.99794 4.6146 10.0771 3.53544C11.1563 2.45627 12.4639 1.91669 14 1.91669C15.5361 1.91669 16.8438 2.45627 17.9229 3.53544C19.0021 4.6146 19.5417 5.92224 19.5417 7.45835V10.2584H21.5834C22.0695 10.2584 22.4827 10.4285 22.8229 10.7688C23.1632 11.109 23.3334 11.5222 23.3334 12.0084V24.6667C23.3334 25.1528 23.1632 25.566 22.8229 25.9063C22.4827 26.2465 22.0695 26.4167 21.5834 26.4167H6.41669ZM6.41669 24.6667H21.5834V12.0084H6.41669V24.6667ZM14 20.5834C14.6222 20.5834 15.1521 20.3695 15.5896 19.9417C16.0271 19.5139 16.2459 18.9986 16.2459 18.3959C16.2459 17.8125 16.0271 17.2827 15.5896 16.8063C15.1521 16.3299 14.6222 16.0917 14 16.0917C13.3778 16.0917 12.8479 16.3299 12.4104 16.8063C11.9729 17.2827 11.7542 17.8125 11.7542 18.3959C11.7542 18.9986 11.9729 19.5139 12.4104 19.9417C12.8479 20.3695 13.3778 20.5834 14 20.5834ZM10.2084 10.2584H17.7917V7.45835C17.7917 6.40835 17.4222 5.51391 16.6834 4.77502C15.9445 4.03613 15.05 3.66669 14 3.66669C12.95 3.66669 12.0556 4.03613 11.3167 4.77502C10.5778 5.51391 10.2084 6.40835 10.2084 7.45835V10.2584Z" fill="#3F3F3F" fill-opacity="0.9"/>
</g>
</svg>
