<svg width="28" height="29" viewBox="0 0 28 29" fill="none" xmlns="http://www.w3.org/2000/svg">
<path d="M5.925 22.35C5.545 22.35 5.2125 22.2075 4.9275 21.9225C4.6425 21.6375 4.5 21.305 4.5 20.925V8.57502C4.5 8.19502 4.6425 7.86252 4.9275 7.57752C5.2125 7.29252 5.545 7.15002 5.925 7.15002H22.075C22.455 7.15002 22.7875 7.29252 23.0725 7.57752C23.3575 7.86252 23.5 8.19502 23.5 8.57502V20.925C23.5 21.305 23.3575 21.6375 23.0725 21.9225C22.7875 22.2075 22.455 22.35 22.075 22.35H5.925ZM14 15.1775L5.925 9.88127V20.925H22.075V9.88127L14 15.1775ZM14 13.7525L21.98 8.57502H6.04375L14 13.7525ZM5.925 9.88127V8.57502V20.925V9.88127Z" fill="#3F3F3F" fill-opacity="0.9"/>
</svg>
