<svg width="36" height="37" viewBox="0 0 36 37" fill="#fff" xmlns="http://www.w3.org/2000/svg"><path d="M16.5 18.3727C14.9187 18.3727 13.625 17.8696 12.6188 16.8633C11.6125 15.8571 11.1094 14.5633 11.1094 12.9821C11.1094 11.4008 11.6125 10.1071 12.6188 9.10081C13.625 8.09456 14.9187 7.59143 16.5 7.59143C18.0813 7.59143 19.375 8.09456 20.3812 9.10081C21.3875 10.1071 21.8906 11.4008 21.8906 12.9821C21.8906 14.5633 21.3875 15.8571 20.3812 16.8633C19.375 17.8696 18.0813 18.3727 16.5 18.3727ZM5 29.9086V26.5305C5 25.6201 5.2276 24.8414 5.68281 24.1946C6.13802 23.5477 6.725 23.0565 7.44375 22.7211C9.04896 22.0024 10.5883 21.4633 12.0617 21.1039C13.5352 20.7446 15.0146 20.5649 16.5 20.5649C17.9854 20.5649 19.4589 20.7505 20.9203 21.1219C22.3818 21.4933 23.9151 22.0263 25.5203 22.7211C26.263 23.0565 26.862 23.5477 27.3172 24.1946C27.7724 24.8414 28 25.6201 28 26.5305V29.9086H5Z"/></svg>
