<svg width="36" height="37" viewBox="0 0 36 37" fill="white" xmlns="http://www.w3.org/2000/svg"><path d="M18 18.3727C16.4187 18.3727 15.125 17.8696 14.1188 16.8633C13.1125 15.8571 12.6094 14.5633 12.6094 12.9821C12.6094 11.4008 13.1125 10.1071 14.1188 9.10081C15.125 8.09456 16.4187 7.59143 18 7.59143C19.5813 7.59143 20.875 8.09456 21.8812 9.10081C22.8875 10.1071 23.3906 11.4008 23.3906 12.9821C23.3906 14.5633 22.8875 15.8571 21.8812 16.8633C20.875 17.8696 19.5813 18.3727 18 18.3727ZM6.5 29.9086V26.5305C6.5 25.6201 6.7276 24.8414 7.18281 24.1946C7.63802 23.5477 8.225 23.0565 8.94375 22.7211C10.549 22.0024 12.0883 21.4633 13.5617 21.1039C15.0352 20.7446 16.5146 20.5649 18 20.5649C19.4854 20.5649 20.9589 20.7505 22.4203 21.1219C23.8818 21.4933 25.4151 22.0263 27.0203 22.7211C27.763 23.0565 28.362 23.5477 28.8172 24.1946C29.2724 24.8414 29.5 25.6201 29.5 26.5305V29.9086H6.5Z"/></svg>
