<svg width="28" height="29" viewBox="0 0 28 29" fill="#fff" xmlns="http://www.w3.org/2000/svg"><mask id="mask0_283_333" style="mask-type:alpha" maskUnits="userSpaceOnUse" x="0" y="0" width="28" height="29"><rect y="0.5" width="28" height="28" /></mask><g mask="url(#mask0_283_333)"><path d="M21 26.1667C20.0278 26.1667 19.2014 25.8264 18.5208 25.1459C17.8403 24.4653 17.5 23.6389 17.5 22.6667C17.5 22.5306 17.5097 22.3894 17.5292 22.2432C17.5486 22.0978 17.5778 21.9667 17.6167 21.85L9.39167 17.0667C9.06111 17.3584 8.69167 17.5867 8.28333 17.7515C7.875 17.9172 7.44722 18 7 18C6.02778 18 5.20139 17.6598 4.52083 16.9792C3.84028 16.2987 3.5 15.4723 3.5 14.5C3.5 13.5278 3.84028 12.7014 4.52083 12.0209C5.20139 11.3403 6.02778 11 7 11C7.44722 11 7.875 11.0825 8.28333 11.2474C8.69167 11.413 9.06111 11.6417 9.39167 11.9334L17.6167 7.15004C17.5778 7.03337 17.5486 6.90232 17.5292 6.75687C17.5097 6.61065 17.5 6.46949 17.5 6.33337C17.5 5.36115 17.8403 4.53476 18.5208 3.85421C19.2014 3.17365 20.0278 2.83337 21 2.83337C21.9722 2.83337 22.7986 3.17365 23.4792 3.85421C24.1597 4.53476 24.5 5.36115 24.5 6.33337C24.5 7.3056 24.1597 8.13199 23.4792 8.81254C22.7986 9.4931 21.9722 9.83337 21 9.83337C20.5528 9.83337 20.125 9.75054 19.7167 9.58487C19.3083 9.41999 18.9389 9.19171 18.6083 8.90004L10.3833 13.6834C10.4222 13.8 10.4514 13.9311 10.4708 14.0765C10.4903 14.2228 10.5 14.3639 10.5 14.5C10.5 14.6362 10.4903 14.7769 10.4708 14.9224C10.4514 15.0686 10.4222 15.2 10.3833 15.3167L18.6083 20.1C18.9389 19.8084 19.3083 19.5797 19.7167 19.414C20.125 19.2492 20.5528 19.1667 21 19.1667C21.9722 19.1667 22.7986 19.507 23.4792 20.1875C24.1597 20.8681 24.5 21.6945 24.5 22.6667C24.5 23.6389 24.1597 24.4653 23.4792 25.1459C22.7986 25.8264 21.9722 26.1667 21 26.1667ZM21 7.50004C21.3306 7.50004 21.6074 7.38843 21.8307 7.16521C22.0547 6.94121 22.1667 6.66393 22.1667 6.33337C22.1667 6.00282 22.0547 5.72554 21.8307 5.50154C21.6074 5.27832 21.3306 5.16671 21 5.16671C20.6694 5.16671 20.3926 5.27832 20.1693 5.50154C19.9453 5.72554 19.8333 6.00282 19.8333 6.33337C19.8333 6.66393 19.9453 6.94121 20.1693 7.16521C20.3926 7.38843 20.6694 7.50004 21 7.50004ZM7 15.6667C7.33056 15.6667 7.60783 15.5547 7.83183 15.3307C8.05506 15.1075 8.16667 14.8306 8.16667 14.5C8.16667 14.1695 8.05506 13.8922 7.83183 13.6682C7.60783 13.445 7.33056 13.3334 7 13.3334C6.66944 13.3334 6.39217 13.445 6.16817 13.6682C5.94494 13.8922 5.83333 14.1695 5.83333 14.5C5.83333 14.8306 5.94494 15.1075 6.16817 15.3307C6.39217 15.5547 6.66944 15.6667 7 15.6667ZM21 23.8334C21.3306 23.8334 21.6074 23.7214 21.8307 23.4974C22.0547 23.2742 22.1667 22.9973 22.1667 22.6667C22.1667 22.3362 22.0547 22.0593 21.8307 21.836C21.6074 21.612 21.3306 21.5 21 21.5C20.6694 21.5 20.3926 21.612 20.1693 21.836C19.9453 22.0593 19.8333 22.3362 19.8333 22.6667C19.8333 22.9973 19.9453 23.2742 20.1693 23.4974C20.3926 23.7214 20.6694 23.8334 21 23.8334Z"/></g></svg>