<svg width="28" height="29" viewBox="0 0 28 29" fill="none" xmlns="http://www.w3.org/2000/svg"><mask id="mask0_283_324" style="mask-type:alpha" maskUnits="userSpaceOnUse" x="0" y="0" width="28" height="29"><rect y="0.5" width="28" height="28" fill="#fff"/></mask><g mask="url(#mask0_283_324)"><path d="M5.83333 22.6667H7.46667L17.5292 12.6042L15.8958 10.9709L5.83333 21.0334V22.6667ZM22.5167 10.9125L17.5583 6.01254L19.1917 4.37921C19.6389 3.93199 20.1884 3.70837 20.8402 3.70837C21.4912 3.70837 22.0403 3.93199 22.4875 4.37921L24.1208 6.01254C24.5681 6.45976 24.8014 6.99954 24.8208 7.63187C24.8403 8.26343 24.6264 8.80282 24.1792 9.25004L22.5167 10.9125ZM20.825 12.6334L8.45833 25H3.5V20.0417L15.8667 7.67504L20.825 12.6334Z" fill="white"/></g></svg>
