<svg width="28" height="29" viewBox="0 0 28 29" fill="none" xmlns="http://www.w3.org/2000/svg">
<mask id="mask0_132_253" style="mask-type:alpha" maskUnits="userSpaceOnUse" x="0" y="0" width="28" height="29">
<rect y="0.75" width="28" height="28" fill="#5F5F5F" fill-opacity="0.85"/>
</mask>
<g mask="url(#mask0_132_253)">
<path d="M14 14.7208C12.7167 14.7208 11.6667 14.3125 10.85 13.4958C10.0334 12.6791 9.62502 11.6291 9.62502 10.3458C9.62502 9.06246 10.0334 8.01246 10.85 7.19579C11.6667 6.37913 12.7167 5.97079 14 5.97079C15.2834 5.97079 16.3334 6.37913 17.15 7.19579C17.9667 8.01246 18.375 9.06246 18.375 10.3458C18.375 11.6291 17.9667 12.6791 17.15 13.4958C16.3334 14.3125 15.2834 14.7208 14 14.7208ZM4.66669 24.0833V21.3416C4.66669 20.6027 4.85141 19.9708 5.22085 19.4458C5.5903 18.9208 6.06669 18.5222 6.65002 18.25C7.9528 17.6666 9.2021 17.2291 10.3979 16.9375C11.5938 16.6458 12.7945 16.5 14 16.5C15.2056 16.5 16.4014 16.6507 17.5875 16.952C18.7736 17.2534 20.0181 17.6861 21.3209 18.25C21.9236 18.5222 22.4097 18.9208 22.7792 19.4458C23.1486 19.9708 23.3334 20.6027 23.3334 21.3416V24.0833H4.66669ZM6.41669 22.3333H21.5834V21.3416C21.5834 21.0305 21.491 20.734 21.3063 20.452C21.1215 20.1701 20.8931 19.9611 20.6209 19.825C19.3764 19.2222 18.2389 18.809 17.2084 18.5854C16.1778 18.3618 15.1084 18.25 14 18.25C12.8917 18.25 11.8125 18.3618 10.7625 18.5854C9.71252 18.809 8.57502 19.2222 7.35002 19.825C7.0778 19.9611 6.85419 20.1701 6.67919 20.452C6.50419 20.734 6.41669 21.0305 6.41669 21.3416V22.3333ZM14 12.9708C14.7584 12.9708 15.3854 12.7229 15.8813 12.227C16.3771 11.7312 16.625 11.1041 16.625 10.3458C16.625 9.58746 16.3771 8.96038 15.8813 8.46455C15.3854 7.96871 14.7584 7.72079 14 7.72079C13.2417 7.72079 12.6146 7.96871 12.1188 8.46455C11.6229 8.96038 11.375 9.58746 11.375 10.3458C11.375 11.1041 11.6229 11.7312 12.1188 12.227C12.6146 12.7229 13.2417 12.9708 14 12.9708Z" fill="#3F3F3F" fill-opacity="0.9"/>
</g>
</svg>
